# xmcd
#
# Track frame offsets: 
#        150
#        20259
#        40652
#        66954
#        81102
#        98646
#        116957
#        135171
#        151725
#        176807
#        190224
#        209411
#
# Disc length: 3095 seconds
#
# Revision: 3
# Processed by: cddbd v1.5.2PL0 Copyright (c) Steve Scherf et al.
# Submitted via: ExactAudioCopyFreeDBPlugin 1.0
#
DISCID=980c150c
DTITLE=EKT Gdynia - Pójdę przez morze
DYEAR=1999
DGENRE=Folk
TTITLE0=Z Pacyfiku na Atlantyk
TTITLE1=Morze, moje morze
TTITLE2=Już nie pływam
TTITLE3=Ja stawiam
TTITLE4=Życzenia powrotu
TTITLE5=Spotkaj się z żaglem
TTITLE6=Początkującego żeglarza pieśn radosna
TTITLE7=Żeglarski czardasz
TTITLE8=Piosenka dla mojej dziewczyny
TTITLE9=Po co mi to było
TTITLE10=Ballada o żeglarzu
TTITLE11=Pojdę przez morze
EXTD=
EXTT0=
EXTT1=
EXTT2=
EXTT3=
EXTT4=
EXTT5=
EXTT6=
EXTT7=
EXTT8=
EXTT9=
EXTT10=
EXTT11=
PLAYORDER=
